<svg version="1.2" xmlns="http://www.w3.org/2000/svg" viewBox="0 0 1000 1000" width="1000" height="1000"><defs><clipPath clipPathUnits="userSpaceOnUse" id="cp1"><path d="m1000 1000h-1000v-1000h1000z"/></clipPath><clipPath clipPathUnits="userSpaceOnUse" id="cp2"><path d="m919.56 483.44c0 231.72-187.84 419.56-419.56 419.56-231.72 0-419.56-187.84-419.56-419.56 0-231.72 187.84-419.56 419.56-419.56 231.72 0 419.56 187.84 419.56 419.56z"/></clipPath><clipPath clipPathUnits="userSpaceOnUse" id="cp3"><path d="m799.91 167.32l85 67.8c7.54 6.01 11.93 15.13 11.93 24.78v443.88c0 6.67-7.7 10.38-12.91 6.22l-85-67.79c-7.54-6.02-11.93-15.14-11.93-24.79v-443.88c0-6.66 7.7-10.37 12.91-6.22zm-151.26-121l85 67.79c7.55 6.02 11.94 15.14 11.94 24.79v443.88c0 6.66-7.7 10.37-12.91 6.22l-85-67.8c-7.54-6.01-11.94-15.13-11.94-24.78v-443.88c0-6.67 7.7-10.38 12.91-6.22z"/></clipPath></defs><style>.a{opacity:.2;fill:#74c6f7;stroke:#2c3f87;stroke-miterlimit:10;stroke-width:2}.b{opacity:.5;mix-blend-mode:multiply;fill:#e1f5e9}.c{opacity:.5;mix-blend-mode:multiply;fill:none;stroke:#5cddfa;stroke-miterlimit:10;stroke-width:2}.d{fill:#807c92}.e{opacity:.6;mix-blend-mode:multiply;fill:#807c92}.f{fill:#2c3f87}.g{fill:#74c6f7}.h{fill:#3e3f43}.i{fill:#2c254a}.j{fill:#e58787}.k{fill:none;stroke:#fff;stroke-miterlimit:10;stroke-width:1.9}.l{mix-blend-mode:multiply;fill:#e58787}.m{fill:#fff}.n{fill:#3f82aa}.o{opacity:.5;mix-blend-mode:multiply;fill:#2c3f87}.p{fill:none;stroke:#2c3f87;stroke-miterlimit:10;stroke-width:1.9;stroke-dasharray:9.585,9.585}</style><path class="a" d="m1000 1000h-1000v-1000h1000z"/><g style="mix-blend-mode:multiply"><g style="mix-blend-mode:multiply"><g clip-path="url(#cp1)" style="mix-blend-mode:overlay"><path class="b" d="m-163.8 454.8c19.4-39.9 57.1-69 98.7-84.4 49.7-18.4 105.9-18.8 155.8-0.9 82.9 29.7 149.4 107.2 237.5 109.7 49.8 1.4 98.1-23.1 132.8-58.9 34.8-35.7 57.3-81.8 72.9-129.1 22.1-66.9 32.3-139.5 71.3-198.2 16.4-24.8 38.9-47.1 67.4-55.4 45.8-13.4 92.7 11.6 137.9 27 53.8 18.3 116 22.3 165-6.4 52.7-30.8 80.2-99.3 63.3-158.1l-1155.7-34.1z"/><path class="b" d="m1147.3 638.8c-23.8 37.4-64.6 61.9-107.7 72.5-51.5 12.6-107.4 6.5-154.9-17-79-39-136.1-123.6-223.3-136.2-49.3-7.1-100.1 11.7-138.7 43.2-38.7 31.5-66.3 74.7-87.3 120-29.6 63.9-48 134.8-93.5 188.7-19.1 22.7-44 42.3-73.3 47.3-47.1 8.1-90.8-22.2-133.9-42.6-51.3-24.4-112.7-35.5-164.6-12.7-56 24.7-91.1 89.6-81.1 149.9l1144.2 166.4z"/><path class="c" d="m338.9 1106.2c5.8-57.3 13.9-119.4 54.8-160 37.6-37.2 93.9-46.9 146.5-52 52.7-5.1 108.3-8.5 152.6-37.4 54.1-35.4 79.2-101.1 95.5-163.7 16.3-62.6 28.2-128.9 67.1-180.6 41.7-55.3 111.6-86.5 180.8-85.9 69.2 0.6 136.7 31.4 186.5 79.4v600.2z"/><path class="c" d="m641.8-64.1c0 0-143.9 49.2-192.4 209.7-22.7 75.1-75.7 142-144.8 179-26.6 14.3-57.8 23.7-87 15.8-29.1-8-51.3-31.9-67.5-57.4-16.2-25.6-28.3-53.7-46.7-77.7-18.4-24.1-45.3-44.3-75.5-44.4-28.1-0.2-53.4 16.7-73.7 36.1-20.2 19.5-37.6 42.2-60.4 58.5-21.7 15.5-48 24.7-74.7 26-39.3 1.9-77.4-12.8-114-27.1l165-543.3z"/></g></g></g><g clip-path="url(#cp2)"><path class="d" d="m72.4 939.3h859.8v-878.5h-859.8z"/><path class="e" d="m72.4 939.3h859.8v-415.3h-859.8z"/><path class="e" d="m72.4 32.9h859.8v143.9h-859.8z"/><path class="f" d="m789.9 144l108.7 86.1c7.6 6 12 15.2 12 24.9v475.9c0 6.6-7.6 10.3-12.8 6.2l-108.7-86c-7.6-6.1-12.1-15.2-12.1-24.9v-475.9c0-6.7 7.7-10.4 12.9-6.3z"/><path class="g" d="m799.9 167.3l85 67.8c7.6 6 11.9 15.2 11.9 24.8v443.9c0 6.6-7.7 10.4-12.9 6.2l-85-67.8c-7.5-6-11.9-15.1-11.9-24.8v-443.9c0-6.6 7.7-10.3 12.9-6.2z"/><path class="f" d="m638.7 23l108.7 86.1c7.6 6 12 15.2 12 24.8v476c0 6.6-7.7 10.3-12.9 6.2l-108.7-86c-7.6-6.1-12-15.2-12-24.9v-475.9c0-6.7 7.7-10.4 12.9-6.3z"/><path class="g" d="m648.7 46.3l85 67.8c7.5 6 11.9 15.2 11.9 24.8v443.9c0 6.6-7.7 10.4-12.9 6.2l-85-67.8c-7.6-6-12-15.1-12-24.8v-443.9c0-6.6 7.7-10.3 13-6.2z"/><g clip-path="url(#cp3)"><g style="mix-blend-mode:multiply"><path class="g" d="m615.7 390.2c-8.1 20.1-30.9 29.9-51.1 21.8-20.1-8.1-29.8-31-21.7-51.1 8.1-20.1 31-29.9 51.1-21.8 20.1 8.1 29.8 31 21.7 51.1z"/><path class="g" d="m651.4 382.4c-4.9 12-18.5 17.8-30.5 13-12-4.9-17.8-18.5-13-30.5 4.9-12 18.5-17.8 30.5-13 12 4.9 17.8 18.5 13 30.5z"/><path class="g" d="m663.2 415.6c-4.8 12-18.4 17.8-30.4 13-12-4.9-17.8-18.5-13-30.5 4.8-12 18.5-17.8 30.5-13 12 4.9 17.8 18.5 12.9 30.5z"/><path class="g" d="m700.6 407.3c-4.8 12-18.4 17.8-30.4 13-12-4.8-17.8-18.5-13-30.5 4.8-12 18.5-17.8 30.5-12.9 12 4.8 17.8 18.4 12.9 30.4z"/><path class="g" d="m736 396.3c-4.9 12-18.5 17.8-30.5 13-12-4.8-17.8-18.5-13-30.5 4.9-12 18.5-17.8 30.5-13 12 4.9 17.8 18.5 13 30.5z"/><path class="g" d="m731.5 426.5c-4.8 12-18.5 17.8-30.4 13-12-4.8-17.8-18.5-13-30.5 4.8-12 18.5-17.8 30.4-12.9 12 4.8 17.9 18.4 13 30.4z"/><path class="g" d="m766 421.7c-4.8 12-18.4 17.8-30.4 12.9-12-4.8-17.8-18.4-13-30.4 4.8-12 18.5-17.8 30.5-13 12 4.8 17.8 18.5 12.9 30.5z"/><path class="g" d="m627.8 352.8c-4.8 12-18.4 17.8-30.4 12.9-12-4.8-17.8-18.4-13-30.4 4.8-12 18.5-17.8 30.5-13 12 4.8 17.8 18.5 12.9 30.5z"/><path class="g" d="m790 460.4c-8.1 20.1-31 29.9-51.1 21.8-20.1-8.1-29.9-31-21.8-51.1 8.1-20.2 31-29.9 51.1-21.8 20.2 8.1 29.9 31 21.8 51.1z"/><path class="g" d="m832.3 462.4c-6.3 15.6-24.1 23.2-39.8 16.9-15.6-6.3-23.2-24.1-16.9-39.8 6.3-15.6 24.1-23.2 39.7-16.9 15.7 6.3 23.3 24.1 17 39.8z"/><path class="g" d="m936 522.3c-4.8 12-18.4 17.8-30.4 13-12-4.9-17.8-18.5-13-30.5 4.8-12 18.5-17.8 30.5-13 12 4.9 17.8 18.5 12.9 30.5z"/><path class="g" d="m956.4 542.3c-4.8 12-18.5 17.8-30.5 13-12-4.8-17.8-18.5-12.9-30.5 4.8-11.9 18.4-17.8 30.4-12.9 12 4.8 17.8 18.4 13 30.4z"/><path class="g" d="m874 490.4c-7.4 18.3-28.3 27.2-46.6 19.8-18.4-7.4-27.3-28.2-19.9-46.6 7.4-18.3 28.3-27.2 46.6-19.8 18.4 7.4 27.3 28.2 19.9 46.6z"/><path class="g" d="m904 521.3c-7.3 18.3-28.2 27.2-46.6 19.8-18.3-7.4-27.2-28.3-19.8-46.6 7.4-18.4 28.2-27.3 46.6-19.9 18.4 7.4 27.2 28.3 19.8 46.7z"/><path class="g" d="m802.1 422.9c-4.8 12-18.5 17.8-30.5 13-12-4.8-17.8-18.5-13-30.5 4.9-11.9 18.5-17.8 30.5-12.9 12 4.8 17.8 18.4 13 30.4z"/><path class="g" d="m789.2 463.5l25.5-134.5 25.6 134.5z"/><path class="g" d="m840.3 463.5l16.4-86.2 16.3 86.2z"/><path class="g" d="m863.5 501.8l34.3-180.9 34.4 180.9z"/><path class="g" d="m628.7 392.1l20.6-108 20.5 108z"/><path class="g" d="m669.8 392.1l13.2-69.2 13.1 69.2z"/><path class="g" d="m696.1 390.2l27.6-145.3 27.6 145.3z"/></g><path class="h" d="m477 885.7h479.4v-310.1l-479.4-348.6z"/></g><path class="i" d="m723.3 910.4h-441v-399.9c0-75 60.8-135.8 135.8-135.8h169.4c75 0 135.8 60.8 135.8 135.8z"/><path class="f" d="m715.4 910.4h-425.2v-385.6c0-72.2 58.6-130.8 130.9-130.8h163.4c72.3 0 130.9 58.6 130.9 130.8z"/><path class="i" d="m267.5 910.4h-440.9v-399.9c0-75 60.8-135.8 135.7-135.8h169.4c75 0 135.8 60.8 135.8 135.8z"/><path class="f" d="m259.6 910.4h-425.1v-385.6c0-72.2 58.6-130.8 130.9-130.8h163.3c72.3 0 130.9 58.6 130.9 130.8z"/><path class="j" d="m664.2 716l25.3 57.7-45.8-38.3-17.1 26.5c0 0 29.7 40.1 65.1 81.2 35.4 41.2 81.6 29.7 81.6 29.7 0 0 0.3-47.3-10.1-98.1-10.4-50.9-23.9-95.8-23.9-95.8z"/><path class="i" d="m674 760.9c6.5 4.4 12.8 9 18.9 13.8 6.2 4.8 12.3 9.7 18.3 14.7 6 5 11.9 10.1 17.8 15.3 5.8 5.3 11.5 10.6 17 16.2-6.5-4.4-12.8-9.1-19-13.9-6.2-4.7-12.2-9.7-18.2-14.6-6-5.1-12-10.1-17.8-15.4-5.8-5.2-11.5-10.5-17-16.1z"/><path class="j" d="m337.1 716l-25.4 57.7 45.8-38.3 17.2 26.5c0 0-29.7 40.1-65.1 81.2-35.5 41.2-81.6 29.7-81.6 29.7 0 0-0.3-47.3 10-98.1 10.4-50.9 24-95.8 24-95.8z"/><path class="i" d="m327.3 760.9c-5.5 5.6-11.3 10.9-17.1 16.1-5.8 5.3-11.7 10.3-17.7 15.4-6 4.9-12.1 9.9-18.3 14.6-6.2 4.8-12.4 9.5-18.9 13.9 5.5-5.6 11.2-10.9 17-16.2 5.8-5.2 11.8-10.3 17.7-15.3 6.1-5 12.1-9.9 18.3-14.7 6.2-4.8 12.5-9.4 19-13.8z"/><path class="i" d="m620.8 789.1h-240.9l-19.2 101.4h279.8z"/><path class="j" d="m539.3 453.4l-6-42.8-33-6.8-32.9 6.8-6.1 42.8 41.3 133.2z"/><path class="g" d="m665.5 510.1c-42.9-29.5-126.2-56.7-126.2-56.7l-36.7 118.8-41.3-118.8c0 0-83.3 27.2-126.1 56.7-42.9 29.6-97.2 172.1-97.2 172.1 0 0 12.7 16.9 36.8 30.7 24.2 13.9 55.6 17.5 55.6 17.5l26.5-62.1 23 120.8c0 0 47.9 19.3 125 19.3 77 0 115.9-19.3 115.9-19.3l23-120.8 26.5 62.1c0 0 31.4-3.6 55.5-17.5 24.2-13.8 36.9-30.7 36.9-30.7 0 0-54.4-142.5-97.2-172.1z"/><path class="k" d="m376.1 802.6c0 0 46.9 22.4 127.1 22.4 80.3 0 120.1-23.4 120.1-23.4"/><path class="i" d="m607.5 268.7c0 67.1-50.9 121.5-113.6 121.5-62.7 0-113.6-54.4-113.6-121.5 0-67.1 50.9-121.5 113.6-121.5 62.7 0 113.6 54.4 113.6 121.5z"/><path class="j" d="m591.6 290.2c0 54-27 136.1-97.7 136.1-70.7 0-97.7-82.1-97.7-136.1 0-54 43.7-97.7 97.7-97.7 54 0 97.7 43.7 97.7 97.7z"/><path class="i" d="m394.1 323.6c25.6 0 16.4-87.5 16.4-87.5h-24.1z"/><path class="i" d="m593.7 323.6c-25.6 0-16.4-87.5-16.4-87.5h24.1z"/><path class="j" d="m371 322.8c1.7 10.7 8.4 20.5 17.9 26.1 3 1.8 6.3 3.2 9.8 3.4 7.9 0.3 15-6.1 17.3-13.5 2.3-7.3 0.8-15.2-1.7-22.5-3.2-9.3-9.3-19-19.3-21-16.2-3.2-26.2 14.3-24 27.5z"/><path class="l" d="m407.9 342.7c-3.5-0.9-6.7-2.8-9.1-5.3-0.5-0.6-0.9-1.1-1.1-1.8-0.2-1.3 0.8-2.5 1.8-3.5q3-2.9 5.9-5.9c0.4-0.4 0.8-0.8 1-1.3 0.1-0.6-0.1-1.2-0.2-1.8-2.4-7.2-5.2-14.9-11.7-19-1.8-1.1-3.8-1.9-6-1.9-3.1 0-6.1 1.9-8 4.3-2 2.4-3.2 5.3-4.3 8.1 0 0-1.5 15.6 9.8 24.6 11.4 9.1 21.9 3.5 21.9 3.5z"/><path class="i" d="m376.2 314.6c0.7-3.1 1.8-6.2 3.8-8.9 2-2.7 5.2-4.9 9-4.9 1.9 0 3.7 0.5 5.3 1.3 1.6 0.8 3 1.9 4.3 3 2.5 2.4 4.4 5.3 5.8 8.3 1.4 3 2.4 6.1 3.4 9.2 0.1 0.4 0.3 0.9 0.3 1.6 0.1 0.6-0.2 1.6-0.6 2.1-0.8 1.1-1.3 1.4-1.9 2q-1.7 1.6-3.5 3.2c-1.1 1.1-2.5 2.2-3 3.1-0.3 0.5-0.4 0.7-0.2 1.2 0.3 0.5 0.8 1.1 1.3 1.7 2.1 2.3 4.7 4 7.7 5.2-3.2-0.4-6.3-1.8-8.9-3.9-0.6-0.5-1.3-1-1.9-1.9-0.6-0.9-0.7-2.4-0.2-3.3 0.4-1 1-1.7 1.6-2.3l1.6-1.8q1.6-1.8 3.3-3.5c0.5-0.5 1.2-1.3 1.3-1.5 0.1-0.1 0 0 0-0.1q0-0.2-0.2-0.8c-1-2.9-2.1-5.9-3.4-8.6-1.3-2.8-2.9-5.3-4.9-7.4-2-2-4.6-3.7-7.3-4-2.6-0.2-5.5 1.1-7.6 3.2-2.1 2.1-3.6 5-5.1 7.8z"/><path class="j" d="m616.8 322.8c-1.7 10.7-8.4 20.5-17.9 26.1-3 1.8-6.3 3.2-9.8 3.4-7.9 0.3-15-6.1-17.3-13.5-2.3-7.3-0.8-15.2 1.7-22.5 3.2-9.3 9.3-19 19.3-21 16.2-3.2 26.2 14.3 24 27.5z"/><path class="l" d="m579.9 342.7c3.5-0.9 6.7-2.8 9.1-5.3 0.5-0.6 0.9-1.1 1.1-1.8 0.2-1.3-0.9-2.5-1.8-3.5q-3-2.9-5.9-5.9c-0.4-0.4-0.8-0.8-1-1.3-0.1-0.6 0.1-1.2 0.2-1.8 2.4-7.2 5.2-14.9 11.7-19 1.8-1.1 3.8-1.9 6-1.9 3.1 0 6 1.9 8 4.3 2 2.4 3.2 5.3 4.3 8.1 0 0 1.5 15.6-9.8 24.6-11.4 9.1-21.9 3.5-21.9 3.5z"/><path class="i" d="m611.6 314.6c-1.5-2.8-3-5.7-5.1-7.8-2.1-2.1-5-3.4-7.6-3.2-2.7 0.3-5.3 2-7.3 4-2.1 2.1-3.7 4.6-4.9 7.4-1.4 2.7-2.4 5.7-3.4 8.6q-0.2 0.6-0.2 0.8c0 0.1-0.1 0 0 0.1 0.1 0.2 0.8 1 1.3 1.5q1.7 1.7 3.3 3.5l1.6 1.8c0.6 0.6 1.2 1.3 1.6 2.3 0.5 0.9 0.4 2.4-0.2 3.3-0.6 0.9-1.3 1.4-1.9 1.9-2.6 2.1-5.7 3.5-8.9 3.9 3-1.2 5.6-2.9 7.7-5.2 0.5-0.6 1-1.2 1.2-1.7 0.3-0.5 0.2-0.7-0.1-1.2-0.5-0.9-1.9-2-3-3.1q-1.8-1.6-3.5-3.2c-0.6-0.6-1.1-0.9-1.9-2-0.4-0.5-0.7-1.5-0.6-2.1 0-0.7 0.2-1.2 0.3-1.6 1-3.1 2-6.2 3.4-9.2 1.4-3 3.3-5.9 5.8-8.3 1.3-1.1 2.7-2.2 4.3-3 1.6-0.8 3.4-1.3 5.2-1.3 3.9 0 7.1 2.2 9.1 4.9 2 2.7 3.1 5.8 3.8 8.9z"/><path class="i" d="m396.4 241.8c0 0 22.4 9 54.6-1.7 32.2-10.7 35.5-42.9 35.5-42.9 0 0 7.6 21.3 25.5 26.3 17.9 5 35.4-9.2 35.4-9.2 0 0 0.5 19.6 14.6 29.2 14.2 9.6 29.6 2.5 29.6 2.5l-45-64.6h-126.7z"/><path class="i" d="m438.5 300.6c0.7-3.7 2.8-7 5.8-9.5 3-2.5 7.1-3.9 11-3.9 4.1-0.1 8.3 1.4 11.2 4.2 2.9 2.7 4.6 6.3 4.9 10-2.5-2.7-5-5-7.6-6.4-2.7-1.5-5.5-2.1-8.4-2.1-3 0.1-5.9 0.6-8.7 2-2.8 1.3-5.5 3.2-8.2 5.7z"/><path class="i" d="m550.9 300.6c-2.7-2.5-5.4-4.4-8.3-5.7-2.8-1.4-5.7-1.9-8.6-2-2.9 0-5.7 0.6-8.4 2.1-2.7 1.4-5.2 3.7-7.6 6.4 0.2-3.7 2-7.3 4.9-10 2.9-2.8 7.1-4.3 11.1-4.2 4 0 8.1 1.4 11.1 3.9 3 2.5 5.1 5.8 5.8 9.5z"/><path class="i" d="m420.7 282.6c3.1-5 6.9-9.5 11.2-13.7 4.3-4 9.1-7.7 14.6-10.4 2.7-1.4 5.7-2.4 8.6-3.2 3.1-0.9 6.2-1.1 9.3-0.9 3.1 0.1 6.1 0.7 9 1.7 2.9 0.9 5.7 2.2 8.1 4l-0.2 0.6c-5.9-0.6-11.5-0.9-17-0.6-5.4 0.4-10.8 0.6-16 2.7-5.2 1.9-10 4.9-14.6 8.3-4.5 3.4-8.8 7.4-12.5 11.8z"/><path class="i" d="m569.4 282.9c-3.8-4.4-8-8.4-12.6-11.8-4.5-3.4-9.4-6.4-14.6-8.3-5.1-2.1-10.6-2.3-16-2.7-5.5-0.3-11 0-16.9 0.6l-0.3-0.6c2.5-1.8 5.3-3.1 8.2-4 2.9-1 5.9-1.6 9-1.7 3.1-0.2 6.2 0 9.2 0.9 3 0.8 5.9 1.8 8.7 3.2 5.5 2.7 10.3 6.4 14.6 10.4 4.2 4.2 8.1 8.7 11.2 13.7z"/><path class="i" d="m501.7 290.8c1.6 4.8 2.8 9.8 3.8 14.7 1 5 1.7 10 2 15.2q0.4 7.6 0.2 15.1c-0.1 5.1-0.4 10.1-0.8 15.2l-0.1 1.8-1.7-0.3c-7.7-1.5-15.3-3.2-22.9-5.3 7.9 0.4 15.6 1.2 23.4 2.1l-1.9 1.5 0.2-15c0-5 0.1-10 0-15-0.1-9.9-1.2-19.9-2.2-30z"/><path class="g" d="m568.3 341.3v-9.5c0 0-31.3-13.4-71.9-13.4-40.6 0-73.3 13.4-73.3 13.4v8.5c11.4-4.3 40.2-13.7 76.5-13.7 32.8 0 57.1 9.2 68.7 14.7z"/><path class="m" d="m499.6 326.6c-36.3 0-65.1 9.4-76.5 13.7v45.6c15.6 23.5 38.7 40.4 70.8 40.4 34.7 0 58.8-19.8 74.4-46.2v-38.8c-11.6-5.5-35.9-14.7-68.7-14.7z"/><path class="i" d="m423.1 331.8l-15-34.2 0.4 7.6 14.6 35.1z"/><path class="i" d="m578.5 295.2l-10.2 36.6v9.5l10.7-36.3z"/><g style="opacity:.4"><path class="i" d="m443.1 354.3c8.1-4.6 17.1-7.5 26.2-9.5 9.1-1.9 18.5-2.8 27.8-2.8 9.4 0.2 18.7 1.3 27.8 3.6 9 2.2 17.9 5.4 25.9 10.1-4.2-2-8.5-3.7-12.9-5.1-4.4-1.4-8.8-2.7-13.4-3.6-9-2-18.2-3-27.4-3.1-9.2-0.2-18.4 0.7-27.5 2.3-4.5 0.9-9 1.9-13.5 3.3-4.4 1.3-8.8 2.8-13 4.8z"/><path class="i" d="m443.1 370.3c8.1-4.6 17.1-7.4 26.2-9.5 9.1-1.9 18.5-2.8 27.8-2.8 9.4 0.2 18.7 1.3 27.8 3.6 9 2.3 17.9 5.4 25.9 10.2-4.2-2.1-8.5-3.8-12.9-5.2-4.4-1.4-8.8-2.7-13.4-3.6-9-2-18.2-3-27.4-3.1-9.2-0.2-18.4 0.8-27.5 2.4-4.5 0.8-9 1.8-13.5 3.2-4.4 1.3-8.8 2.8-13 4.8z"/><path class="i" d="m443.1 386.3c8.1-4.6 17.1-7.4 26.2-9.5 9.1-1.9 18.5-2.8 27.8-2.8 9.4 0.2 18.7 1.3 27.8 3.6 9 2.3 17.9 5.5 25.9 10.2-4.2-2-8.5-3.7-12.9-5.1-4.4-1.5-8.8-2.7-13.4-3.7-9-2-18.2-3-27.4-3-9.2-0.3-18.4 0.7-27.5 2.3-4.5 0.8-9 1.9-13.5 3.2-4.4 1.3-8.8 2.8-13 4.8z"/></g><path class="i" d="m330.7 537.6c6.8 27.4 12.4 55.1 17.7 82.9l3.9 20.8 3.6 20.8c1.3 7 2.5 13.9 3.8 20.9q1.9 10.4 4.3 20.7c-4.7-13.4-8-27.2-11-41-3-13.8-5.7-27.7-8.3-41.5-5.3-27.8-10.2-55.6-14-83.6z"/><path class="i" d="m668.3 537.6c-3.8 28-8.7 55.8-14 83.6-2.6 13.8-5.3 27.7-8.3 41.5-3 13.8-6.3 27.6-11 41q2.4-10.3 4.3-20.7c1.3-7 2.5-13.9 3.8-20.9l3.6-20.8 3.9-20.8c5.3-27.8 11-55.5 17.7-82.9z"/><path class="i" d="m502.6 572.2c2.4 38.4 3.7 76.9 4.8 115.3 0.4 19.3 0.8 38.5 1 57.7q0.3 28.9-0.1 57.8-1.8-28.8-2.9-57.7c-0.8-19.2-1.4-38.4-1.9-57.7-0.9-38.4-1.5-76.9-0.9-115.4z"/><path class="n" d="m360 782.4c0 0 33.2-0.8 75.5 25.7 42.3 26.4 48.4 87.6 48.4 87.6h63.5c0 0 6.1-61.2 48.4-87.6 42.3-26.5 75.5-25.7 75.5-25.7l-24.9-32.5c0 0-57.5 24.2-131.5 24.2-74.1 0-138.3-18.9-138.3-18.9z"/><path class="m" d="m514.9 941.1c-29.2 0-52.9-23.7-52.9-52.9 0-29.2 23.7-52.9 52.9-52.9 29.2 0 52.9 23.7 52.9 52.9 0 29.2-23.7 52.9-52.9 52.9z"/><path fill-rule="evenodd" class="i" d="m722.7 888.2c0 114.7-93.1 207.8-207.8 207.8-114.8 0-207.8-93.1-207.8-207.8 0-114.8 93-207.8 207.8-207.8 114.7 0 207.8 93 207.8 207.8zm-29.7 0c0-98.4-79.8-178.1-178.1-178.1-98.4 0-178.1 79.7-178.1 178.1 0 98.3 79.7 178.1 178.1 178.1 98.3 0 178.1-79.8 178.1-178.1z"/><path class="i" d="m514.9 927.8c-21.9 0-39.6-17.7-39.6-39.6 0-21.9 17.7-39.6 39.6-39.6 21.9 0 39.6 17.7 39.6 39.6 0 21.9-17.7 39.6-39.6 39.6z"/><path class="j" d="m413.9 710.6c36.5 20.5 46.2 43.2 42.9 46.5-6.2 6.2-31.5-19.8-46.6-28-15.1-8.1-25.8-10.3-25.8-10.3 0 0 24.2 12.2 44.1 39.9 19.8 27.7 11 35.5 3.1 37.1-7.9 1.6-78-34.3-84.3-41.8-6.3-7.6 5.7-15.9 5.7-15.9 0 0-2.6-8.4 1.5-12.8 4-4.4 9.5-4.3 9.5-4.3 0 0-1.7-5.4 1.4-9.1 3.2-3.7 10.5-2.3 10.5-2.3 0 0-2.8-7.1 2.6-11.2 5.3-4.1 35.4 12.2 35.4 12.2z"/><path class="i" d="m364 721c7.7 4 15.1 8.6 22.3 13.4 7.3 4.8 14.3 9.9 21 15.5 6.6 5.6 12.8 11.9 18.2 18.7 5.5 6.8 10.4 14 14.3 21.8q-3.4-5.6-7.3-10.7-3.9-5.3-8.1-10.2c-2.9-3.2-5.7-6.4-8.8-9.5q-4.6-4.5-9.5-8.7c-6.6-5.6-13.6-10.7-20.6-15.7-7.1-5-14.3-9.9-21.5-14.6z"/><path class="i" d="m353.2 738.4c7.4 3.6 14.7 7.5 21.8 11.6q10.6 6.1 20.8 13.1c6.7 4.8 13.1 9.9 19.3 15.4 6.1 5.4 12.1 11.1 17.6 17.1-3-2.7-6-5.5-9.2-8.1q-4.6-4.1-9.3-8c-6.4-5.1-12.7-10.3-19.5-14.9-6.6-4.7-13.5-9.1-20.5-13.4q-5.1-3.3-10.4-6.4z"/><path class="i" d="m351.3 739.3c-2.8 2.4-4.8 5.7-4.9 9.1 0 0.4 0 0.9 0 1.2q0.1 0.5 0.4 1c0.4 0.7 0.9 1.4 1.5 2.1 1.2 1.3 2.6 2.4 4 3.6 2.8 2.2 5.9 4.3 8.9 6.4l9.2 6.1q-5.1-2.1-10-4.9c-3.2-1.8-6.3-3.8-9.3-6.1-1.5-1.2-2.9-2.4-4.2-3.9-0.6-0.7-1.2-1.5-1.7-2.4-0.2-0.5-0.4-1-0.5-1.6 0-0.7 0.1-1.1 0.1-1.6 0.4-4.1 3.2-7.3 6.5-9z"/><path class="j" d="m606.5 710.6c-36.5 20.5-46.2 43.2-42.8 46.5 6.2 6.2 31.4-19.8 46.5-28 15.1-8.1 25.8-10.3 25.8-10.3 0 0-24.2 12.2-44 39.9-19.8 27.7-11 35.5-3.2 37.1 7.9 1.6 78-34.3 84.3-41.8 6.3-7.6-5.6-15.9-5.6-15.9 0 0 2.6-8.4-1.5-12.8-4.1-4.4-9.6-4.3-9.6-4.3 0 0 1.8-5.4-1.4-9.1-3.2-3.7-10.5-2.3-10.5-2.3 0 0 2.8-7.1-2.5-11.2-5.4-4.1-35.5 12.2-35.5 12.2z"/><path class="i" d="m656.4 721c-7.2 4.7-14.4 9.6-21.5 14.6-7 5-14 10.1-20.6 15.7q-4.9 4.2-9.5 8.7c-3 3.1-5.9 6.3-8.8 9.5q-4.2 4.9-8.1 10.2-3.9 5.1-7.2 10.7c3.8-7.8 8.8-15 14.2-21.8 5.5-6.8 11.6-13.1 18.2-18.7 6.7-5.6 13.8-10.7 21-15.5 7.3-4.8 14.7-9.4 22.3-13.4z"/><path class="i" d="m667.2 738.4l-10.6 6.4q-5.2 3.1-10.4 6.4c-7 4.3-13.9 8.7-20.5 13.4-6.7 4.6-13.1 9.8-19.5 14.9q-4.7 3.9-9.3 8c-3.1 2.6-6.2 5.4-9.2 8.1 5.5-6 11.5-11.7 17.6-17.1 6.2-5.5 12.6-10.6 19.3-15.4q10.2-7 20.9-13.1c7.1-4.1 14.3-8 21.7-11.6z"/><path class="i" d="m669.2 739.3c3.2 1.7 6 4.9 6.5 9 0 0.5 0.1 0.9 0 1.6-0.1 0.6-0.3 1.1-0.5 1.6-0.5 0.9-1.1 1.7-1.7 2.4-1.3 1.5-2.7 2.7-4.2 3.9-3 2.3-6.1 4.3-9.3 6.1q-4.8 2.8-10 4.9l9.2-6.1c3.1-2.1 6.1-4.2 8.9-6.4 1.4-1.2 2.8-2.3 4-3.6 0.6-0.7 1.1-1.4 1.5-2.1q0.3-0.5 0.4-1c0-0.3 0-0.8 0-1.2-0.1-3.4-2.1-6.7-4.8-9.1z"/><path class="i" d="m439.3 462.4c-2.7 5.1-5.4 10.2-8.2 15.2l-8.3 15.3-8.4 15.1-8.4 15.1-1.7-2.4 27.1-3.8 27.1-3.6 4.9-0.7-3.2 3.8q-11.3 13.3-22.7 26.4l-0.6-2.6q16.5 7.8 33 15.8l16.3 8c5.5 2.7 10.9 5.4 16.4 8.2-5.7-2.3-11.3-4.7-16.9-7.1l-16.8-7.1q-16.7-7.3-33.4-14.7l-2-0.9 1.4-1.8q11.2-13.4 22.4-26.7l1.7 3.1-27.1 3.6-27.1 3.3-3.4 0.5 1.7-2.9 8.9-14.9 9-14.8 9.1-14.7c3-5 6.1-9.9 9.2-14.7z"/><path class="i" d="m565.9 462.4c3.1 4.8 6.1 9.7 9.2 14.7l9.1 14.7 9 14.8 8.9 14.9 1.7 2.9-3.4-0.5-27.1-3.3-27.1-3.6 1.7-3.1q11.2 13.3 22.3 26.7l1.5 1.8-2 0.9q-16.7 7.4-33.5 14.7l-16.7 7.1c-5.6 2.4-11.2 4.8-16.9 7.1 5.4-2.8 10.9-5.5 16.3-8.2l16.4-8q16.4-8 32.9-15.8l-0.5 2.6q-11.4-13.1-22.7-26.4l-3.2-3.8 4.9 0.7 27.1 3.6 27.1 3.8-1.7 2.4-8.5-15.1-8.4-15.1-8.2-15.3c-2.8-5-5.5-10.1-8.2-15.2z"/><path class="i" d="m529.6 597.6h96.4v22.4h-96.4z"/><path class="f" d="m573.5 134.1h-173.1c-15.1 0-27.4-12.3-27.4-27.4v-28.8c0-15.2 12.3-27.5 27.4-27.5h173.1c15.1 0 27.4 12.3 27.4 27.5v28.8c0 15.1-12.3 27.4-27.4 27.4z"/><path class="o" d="m555.2 125.2h-136.5c-11.9 0-21.6-9.6-21.6-21.6v-22.7c0-11.9 9.7-21.6 21.6-21.6h136.5c11.9 0 21.6 9.7 21.6 21.6v22.7c0 12-9.7 21.6-21.6 21.6z"/><path class="g" d="m488.8 112.3c-3.7 0-6.7-3-6.7-6.7v-63.6h13.3v63.6c0 3.7-2.9 6.7-6.6 6.7z"/></g><path class="p" d="m939.3 483.4c0 242.7-196.7 439.4-439.3 439.4-242.6 0-439.3-196.7-439.3-439.4 0-242.6 196.7-439.3 439.3-439.3 242.6 0 439.3 196.7 439.3 439.3z"/></svg>